<?xml version="1.0" encoding="UTF-8"?>
<svg id="Layer_1" data-name="Layer 1" xmlns="http://www.w3.org/2000/svg" viewBox="0 0 511 184">
  <defs>
    <style>
      .cls-1, .cls-2, .cls-3 {
        font-family: FunnelDisplay-Regular, 'Funnel Display';
        font-variation-settings: 'wght' 400;
      }

      .cls-4 {
        font-size: 47.66px;
      }

      .cls-4, .cls-5 {
        fill: #122056;
      }

      .cls-2 {
        letter-spacing: 0em;
      }

      .cls-6 {
        letter-spacing: -.03em;
      }

      .cls-6, .cls-7 {
        font-family: FunnelDisplay-Bold, 'Funnel Display';
        font-variation-settings: 'wght' 700;
        font-weight: 700;
      }

      .cls-5 {
        fill-rule: evenodd;
      }

      .cls-3 {
        letter-spacing: -.02em;
      }
    </style>
  </defs>
  <g>
    <path class="cls-5" d="M35.23,164.77c16.04-5.13,29.02-10.72,38.4-16.87h-11.21c-.15,0-.3-.01-.44-.04h-6.35c-1.27,0-2.3-1.04-2.3-2.3h0c0-1.27,1.04-2.3,2.3-2.3h13.84c.37,0,.72.09,1.03.24h9.11c2.6-2.17,4.76-4.41,6.48-6.72h-16.45c-.08,0-.17,0-.25-.01h-18.05c-1.27,0-2.3-1.04-2.3-2.3h0c0-1.27,1.04-2.3,2.3-2.3h22.98c.35,0,.68.08.97.22h13.3c.05,0,.11,0,.16,0,1.3-2.73,1.99-5.55,2.04-8.47h-16.34c-.24,0-.47-.03-.68-.09-.23.08-.47.12-.73.12h-28.43c-1.27,0-2.3-1.04-2.3-2.3h0c0-1.27,1.04-2.3,2.3-2.3h28.43c.35,0,.68.08.97.22.14-.02.29-.04.44-.04h15.95c-.51-2.64-1.54-5.36-3.08-8.16h-9.8c-.11.02-.23.03-.35.03h-28.43c-1.27,0-2.3-1.04-2.3-2.3h0c0-1.27,1.04-2.3,2.3-2.3h28.43c.31,0,.61.06.89.18h6.44c-1.62-1.79-3.24-3.59-4.85-5.39,5.23.47,10.05.5,14.46.11,20.21,30.08,17,54.73-58.88,63.1h0ZM93.35,32.84h5.66c1.27,0,2.3,1.04,2.3,2.3h0c0,1.27-1.04,2.3-2.3,2.3h-13.84c-.34,0-.66-.07-.95-.21h-8.06c-2.6,2.17-4.76,4.41-6.47,6.72h10.28c.11-.02.23-.03.35-.03h22.98c1.27,0,2.3,1.04,2.3,2.3h0c0,1.27-1.04,2.3-2.3,2.3h-22.98c-.31,0-.62-.06-.89-.18h-12.25c-.05,0-.1,0-.16,0-1.3,2.73-1.99,5.55-2.04,8.47h16.08c.17-.04.35-.06.54-.06h28.43c1.27,0,2.3,1.04,2.3,2.3h0c0,1.27-1.04,2.3-2.3,2.3h-28.43c-.28,0-.55-.05-.79-.14h-15.44c.51,2.64,1.54,5.36,3.08,8.16h8.47c.17-.04.35-.06.54-.06h28.43c1.27,0,2.3,1.04,2.3,2.3h0c0,1.27-1.04,2.3-2.3,2.3h-28.43c-.28,0-.55-.05-.79-.14h-5.4c2.68,2.91,5.29,5.81,7.79,8.68-3.08-.63-6.36-1.52-9.86-2.66-2.75-.44-5.36-.66-7.83-.67-18.61-26.86-19.11-51.29,53.34-62.32.06.34.12.69.18,1.03-13.46,4.61-24.5,9.59-32.75,15h11.21ZM115.03,16.76c1.8-.27,3.63-.54,5.51-.79-1.74.56-3.45,1.12-5.12,1.69-.13-.3-.26-.6-.39-.9Z"/>
    <path class="cls-5" d="M69.21,82.22c-36.11-5.74-47.49,25.78-45.55,77.36,7.84-39.67,21.1-65.4,45.37-62.74,52.84,9.44,72.53-17.85,45.45-78.93,9.52,51.98-1.29,78.73-45.27,64.31Z"/>
  </g>
  <text class="cls-4" transform="translate(117.98 126.89)"><tspan class="cls-7" x="0" y="0">On</tspan><tspan class="cls-6" x="67.51" y="0">k</tspan><tspan class="cls-7" x="94.04" y="0">o</tspan><tspan class="cls-2" x="122.24" y="0">pierwiast</tspan><tspan class="cls-3" x="329.22" y="0">k</tspan><tspan class="cls-1" x="354.71" y="0">i</tspan></text>
</svg>