<?xml version="1.0" encoding="UTF-8"?>
<svg id="Layer_1" data-name="Layer 1" xmlns="http://www.w3.org/2000/svg" viewBox="0 0 500 500">
  <defs>
    <style>
      .cls-1 {
        fill: #003a26;
      }

      .cls-2 {
        fill: #2cd0a8;
      }
    </style>
  </defs>
  <path class="cls-2" d="M149.71,302.15c-14.29-.57-25.87-11.98-26.62-26.22-.02-.49-.03-.98-.03-1.49,0-.46,0-.92.03-1.38.02-.33.03-.65.06-.98,1.11-19.87,16.45-35.59,35.18-35.61-13.31-13.33-12.95-35.42.49-50.25.21-.25.43-.51.67-.75.22-.27.48-.52.75-.78.25-.25.51-.51.78-.75.24-.24.49-.46.75-.67,14.85-13.47,36.94-13.82,50.27-.51.02-18.71,15.71-34.02,35.5-35.18.32-.03.65-.05.97-.06.49-.02,1-.03,1.51-.03s1.02.02,1.51.03c.32.02.65.03.97.06,16.18.95,29.59,11.33,33.97,25.3h62.73c15.39,0,29.99,3.46,43.08,9.61-3.47-11.53-9.74-22.39-18.83-31.48-17.28-17.28-40.92-24.4-63.46-21.36-13.77-18.07-35.53-29.77-59.96-29.77s-46.19,11.69-59.96,29.77c-22.53-3.05-46.18,4.08-63.46,21.36-17.28,17.28-24.4,40.92-21.36,63.46-18.07,13.77-29.77,35.53-29.77,59.96,0,41.2,33.21,74.74,74.26,75.34v-47.63Z"/>
  <path class="cls-1" d="M349.17,199.06h-122.98s0,0,0,0v103.14h-50.3v47.6h50.3v50.3h47.6v-50.3h75.37c41.56,0,75.37-33.8,75.37-75.37s-33.81-75.37-75.37-75.37ZM349.17,302.2h-75.37v-55.54h75.37c15.31,0,27.77,12.46,27.77,27.77s-12.46,27.77-27.77,27.77Z"/>
</svg>