<?xml version="1.0" encoding="UTF-8"?>
<svg id="Layer_1" xmlns="http://www.w3.org/2000/svg" version="1.1" viewBox="0 0 511 184">
  <!-- Generator: Adobe Illustrator 30.3.0, SVG Export Plug-In . SVG Version: 2.1.3 Build 182)  -->
  <defs>
    <style>
      .st0 {
        fill-rule: evenodd;
      }

      .st0, .st1 {
        fill: #122056;
      }

      .st2 {
        isolation: isolate;
      }
    </style>
  </defs>
  <g>
    <path class="st0" d="M35.2,164.8c16-5.1,29-10.7,38.4-16.9h-11.2c-.2,0-.3,0-.4,0h-6.3c-1.3,0-2.3-1-2.3-2.3h0c0-1.3,1-2.3,2.3-2.3h13.8c.4,0,.7,0,1,.2h9.1c2.6-2.2,4.8-4.4,6.5-6.7h-16.4c0,0-.2,0-.2,0h-18c-1.3,0-2.3-1-2.3-2.3h0c0-1.3,1-2.3,2.3-2.3h23c.3,0,.7,0,1,.2h13.5c1.3-2.7,2-5.6,2-8.5h-16.3c-.2,0-.5,0-.7,0-.2,0-.5.1-.7.1h-28.4c-1.3,0-2.3-1-2.3-2.3h0c0-1.3,1-2.3,2.3-2.3h28.4c.3,0,.7,0,1,.2.1,0,.3,0,.4,0h15.9c-.5-2.6-1.5-5.4-3.1-8.2h-9.8c-.1,0-.2,0-.3,0h-28.4c-1.3,0-2.3-1-2.3-2.3h0c0-1.3,1-2.3,2.3-2.3h28.4c.3,0,.6,0,.9.2h6.4c-1.6-1.8-3.2-3.6-4.8-5.4,5.2.5,10.1.5,14.5.1,20.2,30.1,17,54.7-58.9,63.1h0ZM93.3,32.8h5.7c1.3,0,2.3,1,2.3,2.3h0c0,1.3-1,2.3-2.3,2.3h-13.8c-.3,0-.7,0-.9-.2h-8.1c-2.6,2.2-4.8,4.4-6.5,6.7h10.3c.1,0,.2,0,.3,0h23c1.3,0,2.3,1,2.3,2.3h0c0,1.3-1,2.3-2.3,2.3h-23c-.3,0-.6,0-.9-.2h-12.4c-1.3,2.7-2,5.5-2,8.5h16.1c.2,0,.3,0,.5,0h28.4c1.3,0,2.3,1,2.3,2.3h0c0,1.3-1,2.3-2.3,2.3h-28.4c-.3,0-.6,0-.8-.1h-15.4c.5,2.6,1.5,5.4,3.1,8.2h8.5c.2,0,.3,0,.5,0h28.4c1.3,0,2.3,1,2.3,2.3h0c0,1.3-1,2.3-2.3,2.3h-28.4c-.3,0-.6,0-.8-.1h-5.4c2.7,2.9,5.3,5.8,7.8,8.7-3.1-.6-6.4-1.5-9.9-2.7-2.8-.4-5.4-.7-7.8-.7-18.6-26.9-19.1-51.3,53.3-62.3,0,.3.1.7.2,1-13.5,4.6-24.5,9.6-32.8,15h11.2,0ZM115,16.8c1.8-.3,3.6-.5,5.5-.8-1.7.6-3.4,1.1-5.1,1.7-.1-.3-.3-.6-.4-.9Z"/>
    <path class="st0" d="M69.2,82.2c-36.1-5.7-47.5,25.8-45.5,77.4,7.8-39.7,21.1-65.4,45.4-62.7,52.8,9.4,72.5-17.8,45.4-78.9,9.5,52-1.3,78.7-45.3,64.3Z"/>
  </g>
  <g class="st2">
    <g class="st2">
      <path class="st1" d="M136.2,127.4c-3.3,0-6.1-.7-8.6-2-2.4-1.4-4.3-3.3-5.7-5.8-1.4-2.5-2-5.4-2-8.8s.7-6.3,2-8.8c1.4-2.5,3.2-4.4,5.7-5.8,2.4-1.4,5.3-2,8.6-2s6.2.7,8.6,2c2.4,1.4,4.3,3.3,5.7,5.8,1.3,2.5,2,5.4,2,8.8s-.7,6.3-2,8.8c-1.4,2.5-3.3,4.4-5.7,5.8-2.4,1.4-5.3,2-8.6,2ZM136.2,122.1c3.2,0,5.7-1,7.5-3,1.8-2,2.7-4.8,2.7-8.2s-.9-6.2-2.7-8.3c-1.8-2-4.3-3-7.6-3s-5.7,1-7.5,3c-1.8,2-2.7,4.8-2.7,8.3s.9,6.2,2.7,8.2c1.8,2,4.3,3,7.5,3Z"/>
      <path class="st1" d="M158.8,126.9v-17.9h-2.9v-5.9h6.1v3.8h1.7c.9-1.3,2.1-2.4,3.5-3.1,1.4-.7,3.1-1.1,5.2-1.1,3.3,0,5.8.9,7.6,2.7,1.8,1.8,2.7,4.2,2.7,7.2v14.4h-5.9v-13.3c0-1.9-.5-3.3-1.5-4.3-1-1-2.5-1.5-4.4-1.5s-3.4.5-4.4,1.5c-1,1-1.5,2.4-1.5,4.3v13.3h-5.9Z"/>
      <path class="st1" d="M187.9,126.9v-33.4h5.9v18.7h.2l10-9.2h7.1l-10.4,9.4,11.2,14.5h-7l-8.3-10.8-2.8,2.3v8.6h-5.9Z"/>
      <path class="st1" d="M225.3,127.4c-2.5,0-4.8-.5-6.7-1.5-1.9-1-3.4-2.5-4.4-4.3-1-1.9-1.6-4.1-1.6-6.6s.5-4.7,1.6-6.6,2.5-3.3,4.4-4.3c1.9-1,4.1-1.5,6.7-1.5s4.8.5,6.7,1.5c1.9,1,3.3,2.4,4.3,4.3,1,1.9,1.5,4.1,1.5,6.6s-.5,4.7-1.5,6.6c-1,1.9-2.5,3.3-4.4,4.3-1.9,1-4.1,1.5-6.7,1.5ZM225.4,122.2c2.1,0,3.8-.6,4.9-1.9,1.2-1.3,1.7-3.1,1.7-5.3s-.6-4.1-1.7-5.3c-1.2-1.3-2.8-1.9-4.9-1.9s-3.8.6-5,1.9c-1.2,1.3-1.8,3-1.8,5.3s.6,4.1,1.8,5.3c1.2,1.3,2.8,1.9,5,1.9Z"/>
      <path class="st1" d="M243.6,136.4v-29.4h-2v-4h4.1v3.6h1.7c.8-1.3,1.9-2.3,3.2-3,1.4-.7,3-1,4.9-1s4.4.5,6,1.5,2.9,2.4,3.8,4.3c.9,1.9,1.3,4.1,1.3,6.6s-.4,4.8-1.3,6.6-2.1,3.3-3.8,4.3c-1.6,1-3.6,1.5-5.8,1.5s-3.6-.4-5.1-1.2c-1.4-.8-2.5-1.9-3.3-3.4h-.2v13.6h-3.7ZM255,124.2c2.5,0,4.5-.8,5.9-2.4,1.4-1.6,2.1-3.9,2.1-6.8s-.7-5.2-2.1-6.8c-1.4-1.6-3.4-2.4-5.9-2.4s-4.2.7-5.6,2c-1.4,1.3-2.1,3.1-2.1,5.3v3.9c0,2.2.7,4,2.1,5.3,1.4,1.3,3.3,2,5.6,2Z"/>
      <path class="st1" d="M274.4,99.5c-.7,0-1.2-.2-1.7-.7-.5-.5-.7-1-.7-1.7s.2-1.2.7-1.7,1-.7,1.7-.7,1.2.2,1.7.7c.5.5.7,1,.7,1.7s-.2,1.2-.7,1.7-1,.7-1.7.7ZM272.5,126.9v-23.8h3.7v23.8h-3.7Z"/>
      <path class="st1" d="M294,127.4c-2.4,0-4.6-.5-6.4-1.5-1.8-1-3.2-2.5-4.2-4.3-1-1.9-1.5-4.1-1.5-6.6s.5-4.7,1.5-6.5c1-1.8,2.4-3.3,4.1-4.3,1.8-1,3.9-1.5,6.2-1.5s4.2.5,5.8,1.4c1.6.9,2.9,2.2,3.8,3.9.9,1.7,1.4,3.6,1.4,5.9v1.7h-19.3c.1,2.7.9,4.9,2.4,6.4,1.5,1.5,3.5,2.3,6,2.3s3.2-.4,4.4-1.1c1.2-.7,2-1.8,2.5-3.2h3.8c-.6,2.4-1.8,4.3-3.7,5.6-1.9,1.3-4.2,2-6.9,2ZM285.8,112.6h15.5c-.2-2.1-.9-3.8-2.3-5-1.3-1.2-3.1-1.8-5.2-1.8s-3.9.6-5.3,1.8c-1.4,1.2-2.3,2.9-2.7,5Z"/>
      <path class="st1" d="M311.6,126.9v-19.9h-2v-4h4.1v4.4h1.7c.7-1.4,1.7-2.5,3.1-3.3,1.4-.8,3-1.2,4.9-1.2h1.9v3.2h-2.1c-2.5,0-4.4.7-5.8,2.2-1.4,1.5-2.1,3.5-2.1,6v12.6h-3.7Z"/>
      <path class="st1" d="M334.6,126.9l-7.5-23.8h3.9l5.8,19.5h.2l6.9-19.5h4.1l6.9,19.5h.2l5.8-19.5h3.8l-7.4,23.8h-4.3l-7-19.6h-.2l-6.9,19.6h-4.3Z"/>
      <path class="st1" d="M370.9,99.5c-.7,0-1.2-.2-1.7-.7-.5-.5-.7-1-.7-1.7s.2-1.2.7-1.7,1-.7,1.7-.7,1.2.2,1.7.7c.5.5.7,1,.7,1.7s-.2,1.2-.7,1.7-1,.7-1.7.7ZM369,126.9v-23.8h3.7v23.8h-3.7Z"/>
      <path class="st1" d="M386.7,127.3c-2.6,0-4.7-.7-6.3-2-1.5-1.3-2.3-3.1-2.3-5.2s.7-4,2.2-5.3c1.5-1.2,3.7-1.9,6.5-1.9h8.6v-1.1c0-4.1-2.2-6.1-6.6-6.1s-5.7,1.3-6.4,4.1h-3.8c.4-2.3,1.5-4.1,3.3-5.3,1.8-1.3,4.2-1.9,7-1.9s5.7.8,7.4,2.3c1.7,1.5,2.6,3.8,2.6,6.7v11.3h1.8v4h-4.1v-3.6h-1.7c-.8,1.2-2,2.2-3.4,2.9-1.5.7-3.1,1.1-4.9,1.1ZM387.2,124.2c1.5,0,2.9-.3,4.2-1,1.3-.6,2.3-1.5,3-2.6s1.1-2.3,1.1-3.6v-1.3h-8.3c-3.7,0-5.5,1.4-5.5,4.1s.5,2.3,1.5,3.1,2.3,1.2,4.1,1.2Z"/>
      <path class="st1" d="M415.3,127.4c-3.2,0-5.8-.7-7.7-2-1.9-1.3-2.9-3.2-3.1-5.6h3.7c.2,1.5.9,2.7,2,3.4s2.9,1.1,5.1,1.1c4.1,0,6.1-1.3,6.1-3.9s-.3-1.9-.9-2.4-1.7-1-3.2-1.3l-5.2-1c-4.3-.8-6.5-2.9-6.5-6.2s.8-3.8,2.4-5.1c1.6-1.2,3.8-1.9,6.6-1.9s5.2.6,6.9,1.9c1.7,1.3,2.7,3,3,5.3h-3.7c-.3-1.4-1-2.4-2-3.1-1-.7-2.5-1-4.3-1s-3.1.3-4.1.9-1.4,1.5-1.4,2.7.3,1.6.9,2.1c.6.5,1.6.9,3,1.2l5.2,1c2.3.4,3.9,1.2,5,2.2,1.1,1.1,1.6,2.5,1.6,4.3s-.8,4.1-2.5,5.4c-1.7,1.3-4.1,1.9-7.1,1.9Z"/>
      <path class="st1" d="M435.3,126.9c-1.1,0-2-.3-2.6-.9-.6-.6-.9-1.4-.9-2.6v-17.6h-4.6v-2.9h4.6v-7.1h3.7v7.1h6.5v2.9h-6.5v18h7.1v2.9h-7.3Z"/>
      <path class="st1" d="M447,126.9v-33.4h3.7v21h.2l12.2-11.4h4.6l-11.2,10.1,12.2,13.7h-4.6l-10-11.4-3.3,2.7v8.7h-3.7Z"/>
      <path class="st1" d="M474.2,99.5c-.7,0-1.2-.2-1.7-.7-.5-.5-.7-1-.7-1.7s.2-1.2.7-1.7,1-.7,1.7-.7,1.2.2,1.7.7c.5.5.7,1,.7,1.7s-.2,1.2-.7,1.7-1,.7-1.7.7ZM472.3,126.9v-23.8h3.7v23.8h-3.7Z"/>
    </g>
  </g>
</svg>